# xmcd
#
# Track frame offsets: 
#        150
#        21468
#        30936
#        45281
#        57343
#        84143
#        108624
#        125699
#        132723
#        141869
#        156149
#        170976
#        191989
#        216034
#        227485
#
# Disc length: 3215 seconds
#
# Revision: 0
# Processed by: cddbd v1.5.2PL0 Copyright (c) Steve Scherf et al.
# Submitted via: ExactAudioCopy v1.0b3
#
DISCID=d50c8d0f
DTITLE=Nešvilský krúžek - Nešvilský krúžek
DYEAR=1998
DGENRE=Country
TTITLE0=V sedle nových koní
TTITLE1=Veselá společnost
TTITLE2=OK OK
TTITLE3=Kliny
TTITLE4=Chlapci z Nešvilu
TTITLE5=Půlnoční kovboj
TTITLE6=Černá páska
TTITLE7=Já mám tak rád country
TTITLE8=Zuzana II.
TTITLE9=Chrousti
TTITLE10=Nezapomeň na mě
TTITLE11=Starobrno
TTITLE12=Zeppelin
TTITLE13=Já se vrátím
TTITLE14=Nešvil
EXTD=
EXTT0=
EXTT1=
EXTT2=
EXTT3=
EXTT4=
EXTT5=
EXTT6=
EXTT7=
EXTT8=
EXTT9=
EXTT10=
EXTT11=
EXTT12=
EXTT13=
EXTT14=
PLAYORDER=
